<mxfile host="app.diagrams.net" modified="2023-06-27T16:22:36.672Z" agent="Mozilla/5.0 (Windows NT 10.0; Win64; x64) AppleWebKit/537.36 (KHTML, like Gecko) Chrome/114.0.0.0 Safari/537.36" etag="7e6CrI-fCd4a7d6n5JCd" version="21.3.2" type="device">
  <diagram id="R2lEEEUBdFMjLlhIrx00" name="Page-1">
    <mxGraphModel dx="366" dy="168" grid="1" gridSize="10" guides="1" tooltips="1" connect="1" arrows="1" fold="1" page="1" pageScale="1" pageWidth="850" pageHeight="1100" math="0" shadow="0" extFonts="Permanent Marker^https://fonts.googleapis.com/css?family=Permanent+Marker">
      <root>
        <mxCell id="0" />
        <mxCell id="1" parent="0" />
        <mxCell id="6mI0k7yNMWW_v-9b5UGH-2" value="user" style="rounded=0;whiteSpace=wrap;html=1;" vertex="1" parent="1">
          <mxGeometry x="902.5" y="320" width="95" height="50" as="geometry" />
        </mxCell>
        <mxCell id="6mI0k7yNMWW_v-9b5UGH-3" value="*id_user" style="ellipse;whiteSpace=wrap;html=1;rounded=0;fontSize=10;" vertex="1" parent="1">
          <mxGeometry x="850" y="385" width="70" height="40" as="geometry" />
        </mxCell>
        <mxCell id="6mI0k7yNMWW_v-9b5UGH-6" value="username" style="ellipse;whiteSpace=wrap;html=1;rounded=0;fontSize=10;" vertex="1" parent="1">
          <mxGeometry x="890" y="430" width="70" height="40" as="geometry" />
        </mxCell>
        <mxCell id="6mI0k7yNMWW_v-9b5UGH-7" value="hak_akses" style="ellipse;whiteSpace=wrap;html=1;rounded=0;fontSize=10;" vertex="1" parent="1">
          <mxGeometry x="970" y="430" width="70" height="40" as="geometry" />
        </mxCell>
        <mxCell id="6mI0k7yNMWW_v-9b5UGH-8" value="password" style="ellipse;whiteSpace=wrap;html=1;rounded=0;fontSize=10;" vertex="1" parent="1">
          <mxGeometry x="1070" y="310" width="70" height="40" as="geometry" />
        </mxCell>
        <mxCell id="6mI0k7yNMWW_v-9b5UGH-9" value="nama_lengkap" style="ellipse;whiteSpace=wrap;html=1;rounded=0;fontSize=10;" vertex="1" parent="1">
          <mxGeometry x="1080" y="360" width="70" height="40" as="geometry" />
        </mxCell>
        <mxCell id="6mI0k7yNMWW_v-9b5UGH-10" value="no_telp_user" style="ellipse;whiteSpace=wrap;html=1;rounded=0;fontSize=10;" vertex="1" parent="1">
          <mxGeometry x="1010" y="390" width="70" height="40" as="geometry" />
        </mxCell>
        <mxCell id="6mI0k7yNMWW_v-9b5UGH-14" value="" style="endArrow=none;html=1;rounded=0;exitX=0.5;exitY=0;exitDx=0;exitDy=0;entryX=0.5;entryY=1;entryDx=0;entryDy=0;" edge="1" parent="1" source="6mI0k7yNMWW_v-9b5UGH-3" target="6mI0k7yNMWW_v-9b5UGH-2">
          <mxGeometry width="50" height="50" relative="1" as="geometry">
            <mxPoint x="960" y="435" as="sourcePoint" />
            <mxPoint x="1110" y="395" as="targetPoint" />
          </mxGeometry>
        </mxCell>
        <mxCell id="6mI0k7yNMWW_v-9b5UGH-16" value="" style="endArrow=none;html=1;rounded=0;exitX=0.5;exitY=0;exitDx=0;exitDy=0;entryX=0.5;entryY=1;entryDx=0;entryDy=0;" edge="1" parent="1" source="6mI0k7yNMWW_v-9b5UGH-6" target="6mI0k7yNMWW_v-9b5UGH-2">
          <mxGeometry width="50" height="50" relative="1" as="geometry">
            <mxPoint x="1200" y="415" as="sourcePoint" />
            <mxPoint x="1250" y="365" as="targetPoint" />
          </mxGeometry>
        </mxCell>
        <mxCell id="6mI0k7yNMWW_v-9b5UGH-18" value="" style="endArrow=none;html=1;rounded=0;exitX=1;exitY=0.5;exitDx=0;exitDy=0;entryX=0;entryY=0.5;entryDx=0;entryDy=0;" edge="1" parent="1" source="6mI0k7yNMWW_v-9b5UGH-2" target="6mI0k7yNMWW_v-9b5UGH-9">
          <mxGeometry width="50" height="50" relative="1" as="geometry">
            <mxPoint x="1200" y="415" as="sourcePoint" />
            <mxPoint x="1250" y="365" as="targetPoint" />
          </mxGeometry>
        </mxCell>
        <mxCell id="6mI0k7yNMWW_v-9b5UGH-19" value="" style="endArrow=none;html=1;rounded=0;exitX=0.5;exitY=0;exitDx=0;exitDy=0;entryX=0.5;entryY=1;entryDx=0;entryDy=0;" edge="1" parent="1" source="6mI0k7yNMWW_v-9b5UGH-7" target="6mI0k7yNMWW_v-9b5UGH-2">
          <mxGeometry width="50" height="50" relative="1" as="geometry">
            <mxPoint x="1200" y="415" as="sourcePoint" />
            <mxPoint x="1110" y="395" as="targetPoint" />
          </mxGeometry>
        </mxCell>
        <mxCell id="6mI0k7yNMWW_v-9b5UGH-20" value="" style="endArrow=none;html=1;rounded=0;exitX=0;exitY=0.5;exitDx=0;exitDy=0;entryX=1;entryY=0.5;entryDx=0;entryDy=0;" edge="1" parent="1" source="6mI0k7yNMWW_v-9b5UGH-8" target="6mI0k7yNMWW_v-9b5UGH-2">
          <mxGeometry width="50" height="50" relative="1" as="geometry">
            <mxPoint x="1200" y="415" as="sourcePoint" />
            <mxPoint x="1110" y="395" as="targetPoint" />
          </mxGeometry>
        </mxCell>
        <mxCell id="6mI0k7yNMWW_v-9b5UGH-21" value="" style="endArrow=none;html=1;rounded=0;entryX=0.5;entryY=0;entryDx=0;entryDy=0;exitX=0.5;exitY=1;exitDx=0;exitDy=0;" edge="1" parent="1" source="6mI0k7yNMWW_v-9b5UGH-2" target="6mI0k7yNMWW_v-9b5UGH-10">
          <mxGeometry width="50" height="50" relative="1" as="geometry">
            <mxPoint x="1110" y="395" as="sourcePoint" />
            <mxPoint x="1250" y="365" as="targetPoint" />
          </mxGeometry>
        </mxCell>
        <mxCell id="6mI0k7yNMWW_v-9b5UGH-23" value="jenis_saldo" style="rounded=0;whiteSpace=wrap;html=1;" vertex="1" parent="1">
          <mxGeometry x="430" y="430" width="90" height="50" as="geometry" />
        </mxCell>
        <mxCell id="6mI0k7yNMWW_v-9b5UGH-24" value="*id_jenis_saldo" style="ellipse;whiteSpace=wrap;html=1;rounded=0;fontSize=10;" vertex="1" parent="1">
          <mxGeometry x="350" y="390" width="70" height="40" as="geometry" />
        </mxCell>
        <mxCell id="6mI0k7yNMWW_v-9b5UGH-25" value="jenis_saldo" style="ellipse;whiteSpace=wrap;html=1;rounded=0;fontSize=10;" vertex="1" parent="1">
          <mxGeometry x="310" y="435" width="70" height="40" as="geometry" />
        </mxCell>
        <mxCell id="6mI0k7yNMWW_v-9b5UGH-26" value="jumlah_saldo" style="ellipse;whiteSpace=wrap;html=1;rounded=0;fontSize=10;" vertex="1" parent="1">
          <mxGeometry x="350" y="485" width="70" height="40" as="geometry" />
        </mxCell>
        <mxCell id="6mI0k7yNMWW_v-9b5UGH-27" value="" style="endArrow=none;html=1;rounded=0;exitX=0.5;exitY=1;exitDx=0;exitDy=0;entryX=0;entryY=0.5;entryDx=0;entryDy=0;" edge="1" parent="1" source="6mI0k7yNMWW_v-9b5UGH-24" target="6mI0k7yNMWW_v-9b5UGH-23">
          <mxGeometry width="50" height="50" relative="1" as="geometry">
            <mxPoint x="270" y="220" as="sourcePoint" />
            <mxPoint x="320" y="170" as="targetPoint" />
          </mxGeometry>
        </mxCell>
        <mxCell id="6mI0k7yNMWW_v-9b5UGH-28" value="" style="endArrow=none;html=1;rounded=0;exitX=1;exitY=0.5;exitDx=0;exitDy=0;entryX=0;entryY=0.5;entryDx=0;entryDy=0;" edge="1" parent="1" source="6mI0k7yNMWW_v-9b5UGH-25" target="6mI0k7yNMWW_v-9b5UGH-23">
          <mxGeometry width="50" height="50" relative="1" as="geometry">
            <mxPoint x="270" y="220" as="sourcePoint" />
            <mxPoint x="320" y="170" as="targetPoint" />
          </mxGeometry>
        </mxCell>
        <mxCell id="6mI0k7yNMWW_v-9b5UGH-29" value="" style="endArrow=none;html=1;rounded=0;exitX=0.5;exitY=0;exitDx=0;exitDy=0;entryX=0;entryY=0.5;entryDx=0;entryDy=0;" edge="1" parent="1" source="6mI0k7yNMWW_v-9b5UGH-26" target="6mI0k7yNMWW_v-9b5UGH-23">
          <mxGeometry width="50" height="50" relative="1" as="geometry">
            <mxPoint x="270" y="220" as="sourcePoint" />
            <mxPoint x="440" y="455" as="targetPoint" />
          </mxGeometry>
        </mxCell>
        <mxCell id="6mI0k7yNMWW_v-9b5UGH-30" value="supplier" style="rounded=0;whiteSpace=wrap;html=1;" vertex="1" parent="1">
          <mxGeometry x="860" y="525" width="90" height="50" as="geometry" />
        </mxCell>
        <mxCell id="6mI0k7yNMWW_v-9b5UGH-31" value="*id_supplier" style="ellipse;whiteSpace=wrap;html=1;rounded=0;fontSize=10;" vertex="1" parent="1">
          <mxGeometry x="800" y="610" width="70" height="40" as="geometry" />
        </mxCell>
        <mxCell id="6mI0k7yNMWW_v-9b5UGH-32" value="nama_supplier" style="ellipse;whiteSpace=wrap;html=1;rounded=0;fontSize=10;" vertex="1" parent="1">
          <mxGeometry x="865" y="640" width="70" height="40" as="geometry" />
        </mxCell>
        <mxCell id="6mI0k7yNMWW_v-9b5UGH-33" value="alamat_supplier" style="ellipse;whiteSpace=wrap;html=1;rounded=0;fontSize=10;" vertex="1" parent="1">
          <mxGeometry x="940" y="630" width="80" height="40" as="geometry" />
        </mxCell>
        <mxCell id="6mI0k7yNMWW_v-9b5UGH-34" value="no_telp_supplier" style="ellipse;whiteSpace=wrap;html=1;rounded=0;fontSize=10;" vertex="1" parent="1">
          <mxGeometry x="997.5" y="590" width="80" height="40" as="geometry" />
        </mxCell>
        <mxCell id="6mI0k7yNMWW_v-9b5UGH-36" value="" style="endArrow=none;html=1;rounded=0;entryX=0.5;entryY=1;entryDx=0;entryDy=0;exitX=0.5;exitY=0;exitDx=0;exitDy=0;" edge="1" parent="1" source="6mI0k7yNMWW_v-9b5UGH-31" target="6mI0k7yNMWW_v-9b5UGH-30">
          <mxGeometry width="50" height="50" relative="1" as="geometry">
            <mxPoint x="790" y="580" as="sourcePoint" />
            <mxPoint x="895" y="540" as="targetPoint" />
          </mxGeometry>
        </mxCell>
        <mxCell id="6mI0k7yNMWW_v-9b5UGH-37" value="" style="endArrow=none;html=1;rounded=0;exitX=0.5;exitY=0;exitDx=0;exitDy=0;entryX=0.5;entryY=1;entryDx=0;entryDy=0;" edge="1" parent="1" source="6mI0k7yNMWW_v-9b5UGH-32" target="6mI0k7yNMWW_v-9b5UGH-30">
          <mxGeometry width="50" height="50" relative="1" as="geometry">
            <mxPoint x="790" y="580" as="sourcePoint" />
            <mxPoint x="875" y="560" as="targetPoint" />
          </mxGeometry>
        </mxCell>
        <mxCell id="6mI0k7yNMWW_v-9b5UGH-38" value="" style="endArrow=none;html=1;rounded=0;entryX=0.5;entryY=1;entryDx=0;entryDy=0;exitX=0.5;exitY=0;exitDx=0;exitDy=0;" edge="1" parent="1" source="6mI0k7yNMWW_v-9b5UGH-33" target="6mI0k7yNMWW_v-9b5UGH-30">
          <mxGeometry width="50" height="50" relative="1" as="geometry">
            <mxPoint x="790" y="580" as="sourcePoint" />
            <mxPoint x="840" y="530" as="targetPoint" />
          </mxGeometry>
        </mxCell>
        <mxCell id="6mI0k7yNMWW_v-9b5UGH-39" value="" style="endArrow=none;html=1;rounded=0;exitX=0;exitY=0.5;exitDx=0;exitDy=0;entryX=0.5;entryY=1;entryDx=0;entryDy=0;" edge="1" parent="1" source="6mI0k7yNMWW_v-9b5UGH-34" target="6mI0k7yNMWW_v-9b5UGH-30">
          <mxGeometry width="50" height="50" relative="1" as="geometry">
            <mxPoint x="790" y="580" as="sourcePoint" />
            <mxPoint x="840" y="530" as="targetPoint" />
          </mxGeometry>
        </mxCell>
        <mxCell id="6mI0k7yNMWW_v-9b5UGH-40" value="transaksi" style="rounded=0;whiteSpace=wrap;html=1;" vertex="1" parent="1">
          <mxGeometry x="905" y="140" width="90" height="50" as="geometry" />
        </mxCell>
        <mxCell id="6mI0k7yNMWW_v-9b5UGH-41" value="*id_transaksi" style="ellipse;whiteSpace=wrap;html=1;rounded=0;fontSize=10;" vertex="1" parent="1">
          <mxGeometry x="980" y="70" width="70" height="40" as="geometry" />
        </mxCell>
        <mxCell id="6mI0k7yNMWW_v-9b5UGH-42" value="tanggal_transaksi" style="ellipse;whiteSpace=wrap;html=1;rounded=0;fontSize=10;" vertex="1" parent="1">
          <mxGeometry x="1050" y="50" width="90" height="40" as="geometry" />
        </mxCell>
        <mxCell id="6mI0k7yNMWW_v-9b5UGH-43" value="bayar" style="ellipse;whiteSpace=wrap;html=1;rounded=0;fontSize=10;" vertex="1" parent="1">
          <mxGeometry x="1130" y="140" width="70" height="40" as="geometry" />
        </mxCell>
        <mxCell id="6mI0k7yNMWW_v-9b5UGH-44" value="total_harga" style="ellipse;whiteSpace=wrap;html=1;rounded=0;fontSize=10;" vertex="1" parent="1">
          <mxGeometry x="1110" y="90" width="70" height="40" as="geometry" />
        </mxCell>
        <mxCell id="6mI0k7yNMWW_v-9b5UGH-46" value="kembalian" style="ellipse;whiteSpace=wrap;html=1;rounded=0;fontSize=10;" vertex="1" parent="1">
          <mxGeometry x="1100" y="180" width="70" height="40" as="geometry" />
        </mxCell>
        <mxCell id="6mI0k7yNMWW_v-9b5UGH-47" value="**id_user" style="ellipse;whiteSpace=wrap;html=1;rounded=0;fontSize=10;" vertex="1" parent="1">
          <mxGeometry x="1050" y="220" width="70" height="40" as="geometry" />
        </mxCell>
        <mxCell id="6mI0k7yNMWW_v-9b5UGH-48" value="" style="endArrow=none;html=1;rounded=0;exitX=1;exitY=0.5;exitDx=0;exitDy=0;entryX=0.5;entryY=1;entryDx=0;entryDy=0;" edge="1" parent="1" source="6mI0k7yNMWW_v-9b5UGH-40" target="6mI0k7yNMWW_v-9b5UGH-41">
          <mxGeometry width="50" height="50" relative="1" as="geometry">
            <mxPoint x="1195" y="130" as="sourcePoint" />
            <mxPoint x="1245" y="80" as="targetPoint" />
          </mxGeometry>
        </mxCell>
        <mxCell id="6mI0k7yNMWW_v-9b5UGH-49" value="" style="endArrow=none;html=1;rounded=0;exitX=1;exitY=0.5;exitDx=0;exitDy=0;entryX=0.5;entryY=1;entryDx=0;entryDy=0;" edge="1" parent="1" source="6mI0k7yNMWW_v-9b5UGH-40" target="6mI0k7yNMWW_v-9b5UGH-42">
          <mxGeometry width="50" height="50" relative="1" as="geometry">
            <mxPoint x="1195" y="130" as="sourcePoint" />
            <mxPoint x="1245" y="80" as="targetPoint" />
          </mxGeometry>
        </mxCell>
        <mxCell id="6mI0k7yNMWW_v-9b5UGH-50" value="" style="endArrow=none;html=1;rounded=0;exitX=1.007;exitY=0.46;exitDx=0;exitDy=0;entryX=0;entryY=0.5;entryDx=0;entryDy=0;exitPerimeter=0;" edge="1" parent="1" source="6mI0k7yNMWW_v-9b5UGH-40" target="6mI0k7yNMWW_v-9b5UGH-44">
          <mxGeometry width="50" height="50" relative="1" as="geometry">
            <mxPoint x="1145" y="160" as="sourcePoint" />
            <mxPoint x="1195" y="110" as="targetPoint" />
          </mxGeometry>
        </mxCell>
        <mxCell id="6mI0k7yNMWW_v-9b5UGH-51" value="" style="endArrow=none;html=1;rounded=0;exitX=1;exitY=0.5;exitDx=0;exitDy=0;entryX=0;entryY=0.5;entryDx=0;entryDy=0;" edge="1" parent="1" source="6mI0k7yNMWW_v-9b5UGH-40" target="6mI0k7yNMWW_v-9b5UGH-43">
          <mxGeometry width="50" height="50" relative="1" as="geometry">
            <mxPoint x="1195" y="130" as="sourcePoint" />
            <mxPoint x="1245" y="80" as="targetPoint" />
          </mxGeometry>
        </mxCell>
        <mxCell id="6mI0k7yNMWW_v-9b5UGH-52" value="" style="endArrow=none;html=1;rounded=0;exitX=1;exitY=0.5;exitDx=0;exitDy=0;entryX=0;entryY=0.5;entryDx=0;entryDy=0;" edge="1" parent="1" source="6mI0k7yNMWW_v-9b5UGH-40" target="6mI0k7yNMWW_v-9b5UGH-46">
          <mxGeometry width="50" height="50" relative="1" as="geometry">
            <mxPoint x="1195" y="130" as="sourcePoint" />
            <mxPoint x="1245" y="80" as="targetPoint" />
          </mxGeometry>
        </mxCell>
        <mxCell id="6mI0k7yNMWW_v-9b5UGH-53" value="" style="endArrow=none;html=1;rounded=0;entryX=0;entryY=0.5;entryDx=0;entryDy=0;exitX=1;exitY=0.5;exitDx=0;exitDy=0;" edge="1" parent="1" source="6mI0k7yNMWW_v-9b5UGH-40" target="6mI0k7yNMWW_v-9b5UGH-47">
          <mxGeometry width="50" height="50" relative="1" as="geometry">
            <mxPoint x="1195" y="130" as="sourcePoint" />
            <mxPoint x="1200" y="200" as="targetPoint" />
          </mxGeometry>
        </mxCell>
        <mxCell id="6mI0k7yNMWW_v-9b5UGH-55" value="produk" style="rounded=0;whiteSpace=wrap;html=1;" vertex="1" parent="1">
          <mxGeometry x="580" y="320" width="90" height="50" as="geometry" />
        </mxCell>
        <mxCell id="6mI0k7yNMWW_v-9b5UGH-56" value="*id_produk" style="ellipse;whiteSpace=wrap;html=1;rounded=0;fontSize=10;" vertex="1" parent="1">
          <mxGeometry x="475" y="270" width="70" height="40" as="geometry" />
        </mxCell>
        <mxCell id="6mI0k7yNMWW_v-9b5UGH-57" value="nama_produk" style="ellipse;whiteSpace=wrap;html=1;rounded=0;fontSize=10;" vertex="1" parent="1">
          <mxGeometry x="440" y="310" width="70" height="40" as="geometry" />
        </mxCell>
        <mxCell id="6mI0k7yNMWW_v-9b5UGH-58" value="harga_beli" style="ellipse;whiteSpace=wrap;html=1;rounded=0;fontSize=10;" vertex="1" parent="1">
          <mxGeometry x="470" y="350" width="80" height="40" as="geometry" />
        </mxCell>
        <mxCell id="6mI0k7yNMWW_v-9b5UGH-59" value="harga_jual" style="ellipse;whiteSpace=wrap;html=1;rounded=0;fontSize=10;" vertex="1" parent="1">
          <mxGeometry x="730" y="370" width="80" height="40" as="geometry" />
        </mxCell>
        <mxCell id="6mI0k7yNMWW_v-9b5UGH-60" value="" style="endArrow=none;html=1;rounded=0;exitX=1;exitY=0.5;exitDx=0;exitDy=0;entryX=0;entryY=0.5;entryDx=0;entryDy=0;" edge="1" parent="1" source="6mI0k7yNMWW_v-9b5UGH-57" target="6mI0k7yNMWW_v-9b5UGH-55">
          <mxGeometry width="50" height="50" relative="1" as="geometry">
            <mxPoint x="550" y="360" as="sourcePoint" />
            <mxPoint x="600" y="310" as="targetPoint" />
          </mxGeometry>
        </mxCell>
        <mxCell id="6mI0k7yNMWW_v-9b5UGH-61" value="" style="endArrow=none;html=1;rounded=0;entryX=0;entryY=0.5;entryDx=0;entryDy=0;exitX=1;exitY=0.5;exitDx=0;exitDy=0;" edge="1" parent="1" source="6mI0k7yNMWW_v-9b5UGH-58" target="6mI0k7yNMWW_v-9b5UGH-55">
          <mxGeometry width="50" height="50" relative="1" as="geometry">
            <mxPoint x="550" y="360" as="sourcePoint" />
            <mxPoint x="600" y="310" as="targetPoint" />
          </mxGeometry>
        </mxCell>
        <mxCell id="6mI0k7yNMWW_v-9b5UGH-62" value="" style="endArrow=none;html=1;rounded=0;exitX=0;exitY=0.5;exitDx=0;exitDy=0;entryX=1;entryY=0.5;entryDx=0;entryDy=0;" edge="1" parent="1" source="6mI0k7yNMWW_v-9b5UGH-59" target="6mI0k7yNMWW_v-9b5UGH-55">
          <mxGeometry width="50" height="50" relative="1" as="geometry">
            <mxPoint x="550" y="360" as="sourcePoint" />
            <mxPoint x="600" y="310" as="targetPoint" />
          </mxGeometry>
        </mxCell>
        <mxCell id="6mI0k7yNMWW_v-9b5UGH-63" value="" style="endArrow=none;html=1;rounded=0;exitX=1;exitY=0.5;exitDx=0;exitDy=0;entryX=0;entryY=0.5;entryDx=0;entryDy=0;" edge="1" parent="1" source="6mI0k7yNMWW_v-9b5UGH-56" target="6mI0k7yNMWW_v-9b5UGH-55">
          <mxGeometry width="50" height="50" relative="1" as="geometry">
            <mxPoint x="790" y="290" as="sourcePoint" />
            <mxPoint x="840" y="240" as="targetPoint" />
          </mxGeometry>
        </mxCell>
        <mxCell id="6mI0k7yNMWW_v-9b5UGH-64" value="stok" style="ellipse;whiteSpace=wrap;html=1;rounded=0;fontSize=10;" vertex="1" parent="1">
          <mxGeometry x="760" y="320" width="80" height="40" as="geometry" />
        </mxCell>
        <mxCell id="6mI0k7yNMWW_v-9b5UGH-65" value="" style="endArrow=none;html=1;rounded=0;exitX=1;exitY=0.5;exitDx=0;exitDy=0;entryX=0;entryY=0.5;entryDx=0;entryDy=0;" edge="1" parent="1" source="6mI0k7yNMWW_v-9b5UGH-55" target="6mI0k7yNMWW_v-9b5UGH-64">
          <mxGeometry width="50" height="50" relative="1" as="geometry">
            <mxPoint x="790" y="290" as="sourcePoint" />
            <mxPoint x="840" y="240" as="targetPoint" />
          </mxGeometry>
        </mxCell>
        <mxCell id="6mI0k7yNMWW_v-9b5UGH-66" value="**id_jenis_saldo" style="ellipse;whiteSpace=wrap;html=1;rounded=0;fontSize=10;" vertex="1" parent="1">
          <mxGeometry x="730" y="270" width="80" height="40" as="geometry" />
        </mxCell>
        <mxCell id="6mI0k7yNMWW_v-9b5UGH-67" value="" style="endArrow=none;html=1;rounded=0;exitX=1;exitY=0.5;exitDx=0;exitDy=0;entryX=0;entryY=0.5;entryDx=0;entryDy=0;" edge="1" parent="1" source="6mI0k7yNMWW_v-9b5UGH-55" target="6mI0k7yNMWW_v-9b5UGH-66">
          <mxGeometry width="50" height="50" relative="1" as="geometry">
            <mxPoint x="790" y="290" as="sourcePoint" />
            <mxPoint x="840" y="240" as="targetPoint" />
          </mxGeometry>
        </mxCell>
        <mxCell id="6mI0k7yNMWW_v-9b5UGH-68" value="pemasukan" style="rounded=0;whiteSpace=wrap;html=1;" vertex="1" parent="1">
          <mxGeometry x="580" y="525" width="90" height="50" as="geometry" />
        </mxCell>
        <mxCell id="6mI0k7yNMWW_v-9b5UGH-69" value="*id_pemasukan" style="ellipse;whiteSpace=wrap;html=1;rounded=0;fontSize=10;" vertex="1" parent="1">
          <mxGeometry x="400" y="600" width="70" height="40" as="geometry" />
        </mxCell>
        <mxCell id="6mI0k7yNMWW_v-9b5UGH-70" value="**id_produk" style="ellipse;whiteSpace=wrap;html=1;rounded=0;fontSize=10;" vertex="1" parent="1">
          <mxGeometry x="430" y="650" width="70" height="40" as="geometry" />
        </mxCell>
        <mxCell id="6mI0k7yNMWW_v-9b5UGH-71" value="**id_jenis_saldo" style="ellipse;whiteSpace=wrap;html=1;rounded=0;fontSize=10;" vertex="1" parent="1">
          <mxGeometry x="490" y="690" width="80" height="40" as="geometry" />
        </mxCell>
        <mxCell id="6mI0k7yNMWW_v-9b5UGH-72" value="" style="endArrow=none;html=1;rounded=0;exitX=0.5;exitY=0;exitDx=0;exitDy=0;entryX=0.5;entryY=1;entryDx=0;entryDy=0;" edge="1" parent="1" source="6mI0k7yNMWW_v-9b5UGH-70" target="6mI0k7yNMWW_v-9b5UGH-68">
          <mxGeometry width="50" height="50" relative="1" as="geometry">
            <mxPoint x="220" y="340" as="sourcePoint" />
            <mxPoint x="270" y="290" as="targetPoint" />
          </mxGeometry>
        </mxCell>
        <mxCell id="6mI0k7yNMWW_v-9b5UGH-73" value="" style="endArrow=none;html=1;rounded=0;entryX=0.5;entryY=1;entryDx=0;entryDy=0;exitX=0.5;exitY=0;exitDx=0;exitDy=0;" edge="1" parent="1" source="6mI0k7yNMWW_v-9b5UGH-71" target="6mI0k7yNMWW_v-9b5UGH-68">
          <mxGeometry width="50" height="50" relative="1" as="geometry">
            <mxPoint x="220" y="340" as="sourcePoint" />
            <mxPoint x="270" y="290" as="targetPoint" />
          </mxGeometry>
        </mxCell>
        <mxCell id="6mI0k7yNMWW_v-9b5UGH-74" value="" style="endArrow=none;html=1;rounded=0;exitX=1;exitY=0.5;exitDx=0;exitDy=0;entryX=0.5;entryY=1;entryDx=0;entryDy=0;" edge="1" parent="1" source="6mI0k7yNMWW_v-9b5UGH-69" target="6mI0k7yNMWW_v-9b5UGH-68">
          <mxGeometry width="50" height="50" relative="1" as="geometry">
            <mxPoint x="460" y="270" as="sourcePoint" />
            <mxPoint x="510" y="220" as="targetPoint" />
          </mxGeometry>
        </mxCell>
        <mxCell id="6mI0k7yNMWW_v-9b5UGH-75" value="**id_supplier" style="ellipse;whiteSpace=wrap;html=1;rounded=0;fontSize=10;" vertex="1" parent="1">
          <mxGeometry x="580" y="710" width="80" height="40" as="geometry" />
        </mxCell>
        <mxCell id="6mI0k7yNMWW_v-9b5UGH-76" value="tanggal_pemasukan" style="ellipse;whiteSpace=wrap;html=1;rounded=0;fontSize=10;" vertex="1" parent="1">
          <mxGeometry x="665" y="700" width="110" height="40" as="geometry" />
        </mxCell>
        <mxCell id="6mI0k7yNMWW_v-9b5UGH-77" value="jumlah" style="ellipse;whiteSpace=wrap;html=1;rounded=0;fontSize=10;" vertex="1" parent="1">
          <mxGeometry x="730" y="660" width="80" height="40" as="geometry" />
        </mxCell>
        <mxCell id="6mI0k7yNMWW_v-9b5UGH-78" value="" style="endArrow=none;html=1;rounded=0;exitX=0.5;exitY=1;exitDx=0;exitDy=0;entryX=0.5;entryY=0;entryDx=0;entryDy=0;" edge="1" parent="1" source="6mI0k7yNMWW_v-9b5UGH-68" target="6mI0k7yNMWW_v-9b5UGH-75">
          <mxGeometry width="50" height="50" relative="1" as="geometry">
            <mxPoint x="365" y="350" as="sourcePoint" />
            <mxPoint x="415" y="300" as="targetPoint" />
          </mxGeometry>
        </mxCell>
        <mxCell id="6mI0k7yNMWW_v-9b5UGH-79" value="" style="endArrow=none;html=1;rounded=0;exitX=0.5;exitY=1;exitDx=0;exitDy=0;entryX=0.5;entryY=0;entryDx=0;entryDy=0;" edge="1" parent="1" source="6mI0k7yNMWW_v-9b5UGH-68" target="6mI0k7yNMWW_v-9b5UGH-76">
          <mxGeometry width="50" height="50" relative="1" as="geometry">
            <mxPoint x="365" y="350" as="sourcePoint" />
            <mxPoint x="415" y="300" as="targetPoint" />
          </mxGeometry>
        </mxCell>
        <mxCell id="6mI0k7yNMWW_v-9b5UGH-80" value="" style="endArrow=none;html=1;rounded=0;exitX=0.5;exitY=1;exitDx=0;exitDy=0;entryX=0.5;entryY=0;entryDx=0;entryDy=0;" edge="1" parent="1" source="6mI0k7yNMWW_v-9b5UGH-68" target="6mI0k7yNMWW_v-9b5UGH-77">
          <mxGeometry width="50" height="50" relative="1" as="geometry">
            <mxPoint x="365" y="350" as="sourcePoint" />
            <mxPoint x="415" y="300" as="targetPoint" />
          </mxGeometry>
        </mxCell>
        <mxCell id="6mI0k7yNMWW_v-9b5UGH-81" value="detail_transaksi" style="rounded=0;whiteSpace=wrap;html=1;" vertex="1" parent="1">
          <mxGeometry x="580" y="140" width="90" height="50" as="geometry" />
        </mxCell>
        <mxCell id="6mI0k7yNMWW_v-9b5UGH-82" value="*id_detail_transaksi" style="ellipse;whiteSpace=wrap;html=1;rounded=0;fontSize=10;" vertex="1" parent="1">
          <mxGeometry x="470" y="80" width="90" height="40" as="geometry" />
        </mxCell>
        <mxCell id="6mI0k7yNMWW_v-9b5UGH-83" value="**id_transaksi" style="ellipse;whiteSpace=wrap;html=1;rounded=0;fontSize=10;" vertex="1" parent="1">
          <mxGeometry x="550" y="40" width="70" height="40" as="geometry" />
        </mxCell>
        <mxCell id="6mI0k7yNMWW_v-9b5UGH-84" value="**id_produk" style="ellipse;whiteSpace=wrap;html=1;rounded=0;fontSize=10;" vertex="1" parent="1">
          <mxGeometry x="630" y="40" width="80" height="40" as="geometry" />
        </mxCell>
        <mxCell id="6mI0k7yNMWW_v-9b5UGH-85" value="" style="endArrow=none;html=1;rounded=0;exitX=0.5;exitY=1;exitDx=0;exitDy=0;entryX=0.5;entryY=0;entryDx=0;entryDy=0;" edge="1" parent="1" source="6mI0k7yNMWW_v-9b5UGH-83" target="6mI0k7yNMWW_v-9b5UGH-81">
          <mxGeometry width="50" height="50" relative="1" as="geometry">
            <mxPoint x="605" y="140" as="sourcePoint" />
            <mxPoint x="655" y="90" as="targetPoint" />
          </mxGeometry>
        </mxCell>
        <mxCell id="6mI0k7yNMWW_v-9b5UGH-86" value="" style="endArrow=none;html=1;rounded=0;entryX=0.5;entryY=0;entryDx=0;entryDy=0;exitX=0.5;exitY=1;exitDx=0;exitDy=0;" edge="1" parent="1" source="6mI0k7yNMWW_v-9b5UGH-84" target="6mI0k7yNMWW_v-9b5UGH-81">
          <mxGeometry width="50" height="50" relative="1" as="geometry">
            <mxPoint x="605" y="140" as="sourcePoint" />
            <mxPoint x="655" y="90" as="targetPoint" />
          </mxGeometry>
        </mxCell>
        <mxCell id="6mI0k7yNMWW_v-9b5UGH-87" value="" style="endArrow=none;html=1;rounded=0;exitX=0.5;exitY=1;exitDx=0;exitDy=0;entryX=0.5;entryY=0;entryDx=0;entryDy=0;" edge="1" parent="1" source="6mI0k7yNMWW_v-9b5UGH-82" target="6mI0k7yNMWW_v-9b5UGH-81">
          <mxGeometry width="50" height="50" relative="1" as="geometry">
            <mxPoint x="845" y="70" as="sourcePoint" />
            <mxPoint x="895" y="20" as="targetPoint" />
          </mxGeometry>
        </mxCell>
        <mxCell id="6mI0k7yNMWW_v-9b5UGH-88" value="jumlah" style="ellipse;whiteSpace=wrap;html=1;rounded=0;fontSize=10;" vertex="1" parent="1">
          <mxGeometry x="785" y="90" width="80" height="40" as="geometry" />
        </mxCell>
        <mxCell id="6mI0k7yNMWW_v-9b5UGH-89" value="subtotal" style="ellipse;whiteSpace=wrap;html=1;rounded=0;fontSize=10;" vertex="1" parent="1">
          <mxGeometry x="715" y="50" width="110" height="40" as="geometry" />
        </mxCell>
        <mxCell id="6mI0k7yNMWW_v-9b5UGH-91" value="" style="endArrow=none;html=1;rounded=0;exitX=0.5;exitY=0;exitDx=0;exitDy=0;entryX=0;entryY=0.5;entryDx=0;entryDy=0;" edge="1" parent="1" source="6mI0k7yNMWW_v-9b5UGH-81" target="6mI0k7yNMWW_v-9b5UGH-88">
          <mxGeometry width="50" height="50" relative="1" as="geometry">
            <mxPoint x="750" y="150" as="sourcePoint" />
            <mxPoint x="800" y="100" as="targetPoint" />
          </mxGeometry>
        </mxCell>
        <mxCell id="6mI0k7yNMWW_v-9b5UGH-92" value="" style="endArrow=none;html=1;rounded=0;exitX=0.5;exitY=0;exitDx=0;exitDy=0;entryX=0.5;entryY=1;entryDx=0;entryDy=0;" edge="1" parent="1" source="6mI0k7yNMWW_v-9b5UGH-81" target="6mI0k7yNMWW_v-9b5UGH-89">
          <mxGeometry width="50" height="50" relative="1" as="geometry">
            <mxPoint x="750" y="150" as="sourcePoint" />
            <mxPoint x="800" y="100" as="targetPoint" />
          </mxGeometry>
        </mxCell>
        <mxCell id="6mI0k7yNMWW_v-9b5UGH-94" value="Mengirimkan" style="rhombus;whiteSpace=wrap;html=1;" vertex="1" parent="1">
          <mxGeometry x="720" y="510" width="80" height="80" as="geometry" />
        </mxCell>
        <mxCell id="6mI0k7yNMWW_v-9b5UGH-95" value="" style="endArrow=none;html=1;rounded=0;exitX=1;exitY=0.5;exitDx=0;exitDy=0;entryX=0;entryY=0.5;entryDx=0;entryDy=0;" edge="1" parent="1" source="6mI0k7yNMWW_v-9b5UGH-94" target="6mI0k7yNMWW_v-9b5UGH-30">
          <mxGeometry width="50" height="50" relative="1" as="geometry">
            <mxPoint x="235" y="240" as="sourcePoint" />
            <mxPoint x="290" y="190" as="targetPoint" />
          </mxGeometry>
        </mxCell>
        <mxCell id="6mI0k7yNMWW_v-9b5UGH-96" value="" style="endArrow=none;html=1;rounded=0;exitX=0;exitY=0.5;exitDx=0;exitDy=0;entryX=1;entryY=0.5;entryDx=0;entryDy=0;" edge="1" parent="1" source="6mI0k7yNMWW_v-9b5UGH-94" target="6mI0k7yNMWW_v-9b5UGH-68">
          <mxGeometry width="50" height="50" relative="1" as="geometry">
            <mxPoint x="360" y="260" as="sourcePoint" />
            <mxPoint x="410" y="210" as="targetPoint" />
          </mxGeometry>
        </mxCell>
        <mxCell id="6mI0k7yNMWW_v-9b5UGH-97" value="Memiliki" style="rhombus;whiteSpace=wrap;html=1;" vertex="1" parent="1">
          <mxGeometry x="585" y="410" width="80" height="80" as="geometry" />
        </mxCell>
        <mxCell id="6mI0k7yNMWW_v-9b5UGH-98" value="" style="endArrow=none;html=1;rounded=0;exitX=0.5;exitY=0;exitDx=0;exitDy=0;entryX=0.5;entryY=1;entryDx=0;entryDy=0;" edge="1" parent="1" source="6mI0k7yNMWW_v-9b5UGH-68" target="6mI0k7yNMWW_v-9b5UGH-97">
          <mxGeometry width="50" height="50" relative="1" as="geometry">
            <mxPoint x="550" y="420" as="sourcePoint" />
            <mxPoint x="600" y="370" as="targetPoint" />
          </mxGeometry>
        </mxCell>
        <mxCell id="6mI0k7yNMWW_v-9b5UGH-99" value="" style="endArrow=none;html=1;rounded=0;exitX=0.5;exitY=0;exitDx=0;exitDy=0;entryX=0.5;entryY=1;entryDx=0;entryDy=0;" edge="1" parent="1" source="6mI0k7yNMWW_v-9b5UGH-97" target="6mI0k7yNMWW_v-9b5UGH-55">
          <mxGeometry width="50" height="50" relative="1" as="geometry">
            <mxPoint x="550" y="420" as="sourcePoint" />
            <mxPoint x="600" y="370" as="targetPoint" />
          </mxGeometry>
        </mxCell>
        <mxCell id="6mI0k7yNMWW_v-9b5UGH-100" value="" style="endArrow=none;html=1;rounded=0;exitX=1;exitY=0.5;exitDx=0;exitDy=0;entryX=0;entryY=0.5;entryDx=0;entryDy=0;" edge="1" parent="1" source="6mI0k7yNMWW_v-9b5UGH-101" target="6mI0k7yNMWW_v-9b5UGH-68">
          <mxGeometry width="50" height="50" relative="1" as="geometry">
            <mxPoint x="180" y="380" as="sourcePoint" />
            <mxPoint x="230" y="330" as="targetPoint" />
          </mxGeometry>
        </mxCell>
        <mxCell id="6mI0k7yNMWW_v-9b5UGH-101" value="&lt;font style=&quot;font-size: 9px;&quot;&gt;Dikategorikan Sebagai&lt;/font&gt;" style="rhombus;whiteSpace=wrap;html=1;" vertex="1" parent="1">
          <mxGeometry x="435" y="510" width="80" height="80" as="geometry" />
        </mxCell>
        <mxCell id="6mI0k7yNMWW_v-9b5UGH-102" value="" style="endArrow=none;html=1;rounded=0;exitX=0.5;exitY=1;exitDx=0;exitDy=0;entryX=0.5;entryY=0;entryDx=0;entryDy=0;" edge="1" parent="1" source="6mI0k7yNMWW_v-9b5UGH-23" target="6mI0k7yNMWW_v-9b5UGH-101">
          <mxGeometry width="50" height="50" relative="1" as="geometry">
            <mxPoint x="180" y="380" as="sourcePoint" />
            <mxPoint x="480" y="510" as="targetPoint" />
          </mxGeometry>
        </mxCell>
        <mxCell id="6mI0k7yNMWW_v-9b5UGH-105" value="Termasuk" style="rhombus;whiteSpace=wrap;html=1;" vertex="1" parent="1">
          <mxGeometry x="585" y="210" width="80" height="80" as="geometry" />
        </mxCell>
        <mxCell id="6mI0k7yNMWW_v-9b5UGH-106" value="" style="endArrow=none;html=1;rounded=0;entryX=0.5;entryY=0;entryDx=0;entryDy=0;exitX=0.5;exitY=1;exitDx=0;exitDy=0;" edge="1" parent="1" source="6mI0k7yNMWW_v-9b5UGH-81" target="6mI0k7yNMWW_v-9b5UGH-105">
          <mxGeometry width="50" height="50" relative="1" as="geometry">
            <mxPoint x="530" y="280" as="sourcePoint" />
            <mxPoint x="580" y="230" as="targetPoint" />
          </mxGeometry>
        </mxCell>
        <mxCell id="6mI0k7yNMWW_v-9b5UGH-107" value="" style="endArrow=none;html=1;rounded=0;entryX=0.5;entryY=1;entryDx=0;entryDy=0;exitX=0.5;exitY=0;exitDx=0;exitDy=0;" edge="1" parent="1" source="6mI0k7yNMWW_v-9b5UGH-55" target="6mI0k7yNMWW_v-9b5UGH-105">
          <mxGeometry width="50" height="50" relative="1" as="geometry">
            <mxPoint x="530" y="280" as="sourcePoint" />
            <mxPoint x="580" y="230" as="targetPoint" />
          </mxGeometry>
        </mxCell>
        <mxCell id="6mI0k7yNMWW_v-9b5UGH-111" value="Milik" style="rhombus;whiteSpace=wrap;html=1;" vertex="1" parent="1">
          <mxGeometry x="730" y="125" width="80" height="80" as="geometry" />
        </mxCell>
        <mxCell id="6mI0k7yNMWW_v-9b5UGH-112" value="" style="endArrow=none;html=1;rounded=0;exitX=1;exitY=0.5;exitDx=0;exitDy=0;entryX=0;entryY=0.5;entryDx=0;entryDy=0;" edge="1" parent="1" source="6mI0k7yNMWW_v-9b5UGH-111" target="6mI0k7yNMWW_v-9b5UGH-40">
          <mxGeometry width="50" height="50" relative="1" as="geometry">
            <mxPoint x="840" y="200" as="sourcePoint" />
            <mxPoint x="890" y="150" as="targetPoint" />
          </mxGeometry>
        </mxCell>
        <mxCell id="6mI0k7yNMWW_v-9b5UGH-113" value="" style="endArrow=none;html=1;rounded=0;entryX=0;entryY=0.5;entryDx=0;entryDy=0;exitX=1;exitY=0.5;exitDx=0;exitDy=0;" edge="1" parent="1" source="6mI0k7yNMWW_v-9b5UGH-81" target="6mI0k7yNMWW_v-9b5UGH-111">
          <mxGeometry width="50" height="50" relative="1" as="geometry">
            <mxPoint x="840" y="200" as="sourcePoint" />
            <mxPoint x="890" y="150" as="targetPoint" />
          </mxGeometry>
        </mxCell>
        <mxCell id="6mI0k7yNMWW_v-9b5UGH-115" value="Melakukan" style="rhombus;whiteSpace=wrap;html=1;" vertex="1" parent="1">
          <mxGeometry x="910" y="220" width="80" height="80" as="geometry" />
        </mxCell>
        <mxCell id="6mI0k7yNMWW_v-9b5UGH-116" value="" style="endArrow=none;html=1;rounded=0;exitX=0.5;exitY=1;exitDx=0;exitDy=0;entryX=0.5;entryY=0;entryDx=0;entryDy=0;" edge="1" parent="1" source="6mI0k7yNMWW_v-9b5UGH-115" target="6mI0k7yNMWW_v-9b5UGH-2">
          <mxGeometry width="50" height="50" relative="1" as="geometry">
            <mxPoint x="990" y="310" as="sourcePoint" />
            <mxPoint x="1040" y="260" as="targetPoint" />
          </mxGeometry>
        </mxCell>
        <mxCell id="6mI0k7yNMWW_v-9b5UGH-117" value="" style="endArrow=none;html=1;rounded=0;exitX=0.5;exitY=0;exitDx=0;exitDy=0;entryX=0.5;entryY=1;entryDx=0;entryDy=0;" edge="1" parent="1" source="6mI0k7yNMWW_v-9b5UGH-115" target="6mI0k7yNMWW_v-9b5UGH-40">
          <mxGeometry width="50" height="50" relative="1" as="geometry">
            <mxPoint x="990" y="310" as="sourcePoint" />
            <mxPoint x="1040" y="260" as="targetPoint" />
          </mxGeometry>
        </mxCell>
      </root>
    </mxGraphModel>
  </diagram>
</mxfile>
